<?xml version="1.0" encoding="UTF-8"?>
<svg version="1.1" xmlns="http://www.w3.org/2000/svg" width="512" height="512">
<path d="M0 0 C0.73668128 -0.00350607 1.47336256 -0.00701215 2.23236752 -0.01062447 C4.70240761 -0.0199329 7.17221164 -0.01501661 9.64226151 -0.01015663 C11.43047822 -0.01389317 13.2186933 -0.01849471 15.00690579 -0.02388728 C19.9223453 -0.03613224 24.83771682 -0.03585504 29.75316811 -0.03349853 C35.05392763 -0.03309074 40.35466524 -0.0441259 45.65541458 -0.05361366 C56.04133781 -0.07023296 66.42723833 -0.07572363 76.81317374 -0.07683842 C85.25497795 -0.07778847 93.69677467 -0.08189664 102.13857651 -0.08823967 C126.06896212 -0.10585479 149.99932978 -0.11507814 173.92972192 -0.11357872 C175.22005835 -0.11349881 176.51039478 -0.1134189 177.83983231 -0.11333656 C179.131743 -0.1132548 180.4236537 -0.11317304 181.75471321 -0.1130888 C202.69268621 -0.11227588 223.63058728 -0.13141453 244.56853947 -0.1596133 C266.06387873 -0.18833446 287.55918289 -0.20215401 309.05454183 -0.20042574 C321.12398137 -0.19976157 333.19334552 -0.20526601 345.26276779 -0.22678185 C355.53903271 -0.24498353 365.81518805 -0.24934928 376.09146211 -0.235763 C381.33420924 -0.22922822 386.57674607 -0.22913469 391.81947327 -0.2464695 C396.62111667 -0.26218254 401.42238272 -0.25935453 406.22401682 -0.24190123 C407.95886427 -0.23882745 409.69373976 -0.24247796 411.42855415 -0.25362138 C422.10014284 -0.31761646 430.60641448 0.39611591 439.76170731 6.38226891 C449.44572826 16.50647263 450.81152187 26.52548229 450.77240372 39.9841671 C450.77542627 41.39035324 450.77931627 42.79653773 450.78399628 44.20271933 C450.79427167 48.05749348 450.79209564 51.91217457 450.78781569 55.76695633 C450.78534763 59.92792703 450.79436363 64.08887537 450.80185318 68.24983788 C450.81460002 76.39805908 450.81639389 84.54624733 450.81405292 92.69447683 C450.81226957 99.31799736 450.81401976 105.9415079 450.81827736 112.56502724 C450.81887255 113.50787848 450.81946774 114.45072973 450.82008096 115.42215223 C450.82129272 117.33758691 450.82250685 119.25302159 450.82372334 121.16845627 C450.83459884 139.12998702 450.83243635 157.091499 450.82633849 175.0530308 C450.82116943 191.48120636 450.83242449 207.90932261 450.85143671 224.33748643 C450.8708133 241.20997227 450.87907142 258.08243005 450.87531346 274.95492709 C450.87340113 284.42591975 450.87589207 293.89686195 450.890028 303.36784554 C450.90194048 311.43067306 450.90334817 319.49341905 450.89123783 327.5562477 C450.8853482 331.66875546 450.88425202 335.78111407 450.89624023 339.89361191 C450.90709571 343.66136013 450.9039998 347.4288346 450.88997855 351.19656999 C450.88608027 353.19876538 450.89688147 355.2009729 450.90827543 357.20313966 C450.84099453 368.41988964 448.79685165 376.41579358 441.13670731 384.88226891 C432.58807427 392.61674641 425.29033388 393.55551837 414.17235184 393.57611656 C412.93277222 393.58616219 411.6931926 393.59620781 410.41604996 393.60655785 C407.03011319 393.63209416 403.6443429 393.64898301 400.25834894 393.66198587 C396.71489512 393.67765197 393.17152544 393.70443104 389.62813187 393.73001671 C382.92412081 393.77674305 376.22009382 393.81351681 369.51600349 393.84668958 C361.88113288 393.88495448 354.2463469 393.93435315 346.61154771 393.98467374 C330.91166214 394.08790216 315.21172906 394.177192 299.51170731 394.25726891 C301.80584067 398.17964318 304.10107092 402.10137289 306.39723587 406.02255821 C307.1750707 407.3512066 307.95262696 408.68001811 308.72987747 410.00900841 C314.04192476 419.09131051 319.40881143 428.13592468 324.90352249 437.10939598 C330.43093879 446.16019471 333.13726731 453.74870707 331.07811356 464.52680016 C329.17690049 470.51385 325.17801243 476.23548563 319.62851518 479.29575485 C314.1392974 481.89433498 309.71641436 482.83670358 303.67615128 482.7719326 C302.83430532 482.77887813 301.99245937 482.78582366 301.12510294 482.79297966 C298.32929668 482.81114577 295.53434899 482.80101461 292.73851395 482.79071617 C290.72387436 482.7977799 288.70924007 482.80652682 286.69461441 482.81682396 C281.24001704 482.8392765 275.7857104 482.83638784 270.33108449 482.82750249 C265.77097822 482.82238312 261.21092613 482.82969287 256.65082544 482.83697456 C245.89029299 482.85396041 235.12990239 482.85042086 224.36937332 482.83368492 C213.28172022 482.81676281 202.1944608 482.83260257 191.10685068 482.8649078 C181.57365356 482.89162802 172.0405788 482.89887317 162.507348 482.89039272 C156.81956997 482.8854709 151.13202879 482.88763905 145.44428062 482.90818024 C140.09493571 482.92657551 134.74615585 482.92053129 129.39684105 482.89598083 C127.43855443 482.89098529 125.48022447 482.89442992 123.52197266 482.90712929 C102.86432662 483.03045372 102.86432662 483.03045372 94.6309557 475.54806423 C89.42726175 470.1887793 87.41060735 464.10217789 86.82420731 456.75726891 C87.43526881 440.29934567 101.82072017 423.59770422 110.28343582 409.93597984 C113.45054612 404.76419889 116.46728309 399.50178612 119.51170731 394.25726891 C118.54236551 394.25506907 118.54236551 394.25506907 117.55344105 394.25282478 C101.80274263 394.21571414 86.05230095 394.15664333 70.30178547 394.07336617 C62.68482566 394.0336185 55.06796852 394.00120441 47.45091629 393.98627281 C40.80905594 393.97323402 34.16742192 393.94621295 27.52568907 393.90265584 C24.01144613 393.88009065 20.49748182 393.86435522 16.98316002 393.86538506 C13.05242106 393.8662742 9.12224815 393.83593572 5.19163895 393.80316734 C4.03645264 393.80819771 2.88126633 393.81322807 1.69107437 393.81841087 C-5.25488316 393.72901169 -10.424417 392.68138918 -16.48829269 389.25726891 C-17.14330733 388.88946186 -17.79832197 388.52165482 -18.47318554 388.1427021 C-25.10408902 384.20751072 -29.06363449 376.84728618 -31.06966901 369.56335509 C-32.02905081 364.27837672 -31.76843673 358.85185848 -31.75571823 353.49913597 C-31.75945737 352.08953732 -31.76405994 350.67994073 -31.76944888 349.27034742 C-31.78166165 345.40610686 -31.78142045 341.54195299 -31.77906013 337.67769754 C-31.77865153 333.50647934 -31.7896952 329.33528877 -31.79917526 325.16408348 C-31.81577655 316.99547757 -31.82128441 308.82690052 -31.82240002 300.65827914 C-31.82335086 294.01760428 -31.82746297 287.37693894 -31.83380127 280.73626709 C-31.85141094 261.90284122 -31.86064051 243.06943812 -31.85914032 224.23600396 C-31.85906041 223.22103653 -31.8589805 222.2060691 -31.85889816 221.16034508 C-31.8588164 220.14413644 -31.85873464 219.1279278 -31.8586504 218.08092497 C-31.85783748 201.61137693 -31.87697752 185.14192035 -31.9051749 168.67239877 C-31.93390881 151.75583671 -31.94771493 134.83931925 -31.94598734 117.92273217 C-31.94532364 108.42765491 -31.95080739 98.93267353 -31.97234344 89.43761826 C-31.99056186 81.35357684 -31.99489711 73.26967477 -31.9813246 65.1856217 C-31.97479841 61.06281913 -31.97466501 56.94028387 -31.9920311 52.81750679 C-32.00778243 49.03915259 -32.00487757 45.26127718 -31.98746283 41.48293451 C-31.98295154 39.47749285 -31.99803403 37.47203621 -32.01394212 35.46665257 C-31.93055011 24.52388965 -29.2604671 15.26118245 -21.48829269 7.25726891 C-14.88270929 2.06528035 -8.41545525 0.0090457 0 0 Z " fill="#FE7146" transform="translate(46.4882926940918,14.742731094360352)"/>
<path d="M0 0 C0.73668128 -0.00350607 1.47336256 -0.00701215 2.23236752 -0.01062447 C4.70240761 -0.0199329 7.17221164 -0.01501661 9.64226151 -0.01015663 C11.43047822 -0.01389317 13.2186933 -0.01849471 15.00690579 -0.02388728 C19.9223453 -0.03613224 24.83771682 -0.03585504 29.75316811 -0.03349853 C35.05392763 -0.03309074 40.35466524 -0.0441259 45.65541458 -0.05361366 C56.04133781 -0.07023296 66.42723833 -0.07572363 76.81317374 -0.07683842 C85.25497795 -0.07778847 93.69677467 -0.08189664 102.13857651 -0.08823967 C126.06896212 -0.10585479 149.99932978 -0.11507814 173.92972192 -0.11357872 C175.22005835 -0.11349881 176.51039478 -0.1134189 177.83983231 -0.11333656 C179.131743 -0.1132548 180.4236537 -0.11317304 181.75471321 -0.1130888 C202.69268621 -0.11227588 223.63058728 -0.13141453 244.56853947 -0.1596133 C266.06387873 -0.18833446 287.55918289 -0.20215401 309.05454183 -0.20042574 C321.12398137 -0.19976157 333.19334552 -0.20526601 345.26276779 -0.22678185 C355.53903271 -0.24498353 365.81518805 -0.24934928 376.09146211 -0.235763 C381.33420924 -0.22922822 386.57674607 -0.22913469 391.81947327 -0.2464695 C396.62111667 -0.26218254 401.42238272 -0.25935453 406.22401682 -0.24190123 C407.95886427 -0.23882745 409.69373976 -0.24247796 411.42855415 -0.25362138 C422.10014284 -0.31761646 430.60641448 0.39611591 439.76170731 6.38226891 C449.44572826 16.50647263 450.81152187 26.52548229 450.77240372 39.9841671 C450.77542627 41.39035324 450.77931627 42.79653773 450.78399628 44.20271933 C450.79427167 48.05749348 450.79209564 51.91217457 450.78781569 55.76695633 C450.78534763 59.92792703 450.79436363 64.08887537 450.80185318 68.24983788 C450.81460002 76.39805908 450.81639389 84.54624733 450.81405292 92.69447683 C450.81226957 99.31799736 450.81401976 105.9415079 450.81827736 112.56502724 C450.81887255 113.50787848 450.81946774 114.45072973 450.82008096 115.42215223 C450.82129272 117.33758691 450.82250685 119.25302159 450.82372334 121.16845627 C450.83459884 139.12998702 450.83243635 157.091499 450.82633849 175.0530308 C450.82116943 191.48120636 450.83242449 207.90932261 450.85143671 224.33748643 C450.8708133 241.20997227 450.87907142 258.08243005 450.87531346 274.95492709 C450.87340113 284.42591975 450.87589207 293.89686195 450.890028 303.36784554 C450.90194048 311.43067306 450.90334817 319.49341905 450.89123783 327.5562477 C450.8853482 331.66875546 450.88425202 335.78111407 450.89624023 339.89361191 C450.90709571 343.66136013 450.9039998 347.4288346 450.88997855 351.19656999 C450.88608027 353.19876538 450.89688147 355.2009729 450.90827543 357.20313966 C450.84099453 368.41988964 448.79685165 376.41579358 441.13670731 384.88226891 C432.62052673 392.58738467 425.22739458 393.5681243 414.14744949 393.73822594 C412.90442566 393.76421867 411.66140182 393.79021141 410.3807106 393.81699181 C398.94809454 394.04005263 387.51290041 394.16199939 376.07850647 394.25052643 C367.63750565 394.3170006 359.20079808 394.43615164 350.76163936 394.62554848 C344.81242626 394.75451645 338.86437837 394.82164119 332.91382146 394.84402549 C329.36559681 394.85909803 325.82257311 394.90095413 322.27589035 395.01008034 C300.81671971 395.64125766 300.81671971 395.64125766 295.38916397 391.7262249 C292.01447467 388.04633865 290.07757413 383.97128545 288.3561058 379.3272419 C286.9632924 375.91287519 284.92219002 372.94141794 282.88670731 369.88226891 C279.51170731 364.50628076 279.51170731 364.50628076 279.51170731 362.25726891 C325.38170731 362.25726891 371.25170731 362.25726891 418.51170731 362.25726891 C418.51170731 279.75726891 418.51170731 197.25726891 418.51170731 112.25726891 C280.57170731 112.25726891 142.63170731 112.25726891 0.51170731 112.25726891 C0.51170731 194.75726891 0.51170731 277.25726891 0.51170731 362.25726891 C46.38170731 362.25726891 92.25170731 362.25726891 139.51170731 362.25726891 C137.90929247 366.26330599 136.27640777 369.5184773 134.07030106 373.17914391 C133.40450027 374.28644859 132.73869949 375.39375328 132.05272293 376.53461266 C131.70765701 377.10421715 131.36259109 377.67382164 131.00706863 378.26068687 C129.9453369 380.01365914 128.88922635 381.76992199 127.83397293 383.52680016 C122.65892518 392.11005103 122.65892518 392.11005103 121.51170731 393.25726891 C119.8619619 393.3620857 118.20773075 393.39691414 116.55467606 393.40443993 C115.48088196 393.41159523 114.40708786 393.41875053 113.30075455 393.42612267 C112.11224396 393.42881157 110.92373337 393.43150047 109.69920731 393.43427086 C108.45530731 393.44084206 107.21140732 393.44741325 105.92981339 393.45418358 C102.50581126 393.47056051 99.08187126 393.48215535 95.65784454 393.49038911 C93.51715985 393.49553704 91.37647951 393.50161313 89.23579788 393.50790024 C82.53435592 393.52696804 75.83292503 393.54119099 69.13146114 393.54951221 C61.40402217 393.55926585 53.67687108 393.58552925 45.94953346 393.6260131 C39.97404812 393.65623966 33.99864491 393.67098759 28.02308464 393.67429322 C24.45625555 393.67663797 20.88973343 393.68552123 17.3229866 393.71075439 C13.33493056 393.73850891 9.34751024 393.73418412 5.35936356 393.72723961 C3.60088844 393.7464547 3.60088844 393.7464547 1.80688858 393.76605797 C-5.19603914 393.7217045 -10.38123646 392.72528871 -16.48829269 389.25726891 C-17.14309113 388.88936399 -17.79788956 388.52145906 -18.47253036 388.14240551 C-25.10436627 384.2093295 -29.06384103 376.84653622 -31.06966901 369.56335509 C-32.02905081 364.27837672 -31.76843673 358.85185848 -31.75571823 353.49913597 C-31.75945737 352.08953732 -31.76405994 350.67994073 -31.76944888 349.27034742 C-31.78166165 345.40610686 -31.78142045 341.54195299 -31.77906013 337.67769754 C-31.77865153 333.50647934 -31.7896952 329.33528877 -31.79917526 325.16408348 C-31.81577655 316.99547757 -31.82128441 308.82690052 -31.82240002 300.65827914 C-31.82335086 294.01760428 -31.82746297 287.37693894 -31.83380127 280.73626709 C-31.85141094 261.90284122 -31.86064051 243.06943812 -31.85914032 224.23600396 C-31.85906041 223.22103653 -31.8589805 222.2060691 -31.85889816 221.16034508 C-31.8588164 220.14413644 -31.85873464 219.1279278 -31.8586504 218.08092497 C-31.85783748 201.61137693 -31.87697752 185.14192035 -31.9051749 168.67239877 C-31.93390881 151.75583671 -31.94771493 134.83931925 -31.94598734 117.92273217 C-31.94532364 108.42765491 -31.95080739 98.93267353 -31.97234344 89.43761826 C-31.99056186 81.35357684 -31.99489711 73.26967477 -31.9813246 65.1856217 C-31.97479841 61.06281913 -31.97466501 56.94028387 -31.9920311 52.81750679 C-32.00778243 49.03915259 -32.00487757 45.26127718 -31.98746283 41.48293451 C-31.98295154 39.47749285 -31.99803403 37.47203621 -32.01394212 35.46665257 C-31.93055011 24.52388965 -29.2604671 15.26118245 -21.48829269 7.25726891 C-14.88270929 2.06528035 -8.41545525 0.0090457 0 0 Z " fill="#E1D8DF" transform="translate(46.4882926940918,14.742731094360352)"/>
<path d="M0 0 C0.73668128 -0.00350607 1.47336256 -0.00701215 2.23236752 -0.01062447 C4.70240761 -0.0199329 7.17221164 -0.01501661 9.64226151 -0.01015663 C11.43047822 -0.01389317 13.2186933 -0.01849471 15.00690579 -0.02388728 C19.9223453 -0.03613224 24.83771682 -0.03585504 29.75316811 -0.03349853 C35.05392763 -0.03309074 40.35466524 -0.0441259 45.65541458 -0.05361366 C56.04133781 -0.07023296 66.42723833 -0.07572363 76.81317374 -0.07683842 C85.25497795 -0.07778847 93.69677467 -0.08189664 102.13857651 -0.08823967 C126.06896212 -0.10585479 149.99932978 -0.11507814 173.92972192 -0.11357872 C175.22005835 -0.11349881 176.51039478 -0.1134189 177.83983231 -0.11333656 C179.131743 -0.1132548 180.4236537 -0.11317304 181.75471321 -0.1130888 C202.69268621 -0.11227588 223.63058728 -0.13141453 244.56853947 -0.1596133 C266.06387873 -0.18833446 287.55918289 -0.20215401 309.05454183 -0.20042574 C321.12398137 -0.19976157 333.19334552 -0.20526601 345.26276779 -0.22678185 C355.53903271 -0.24498353 365.81518805 -0.24934928 376.09146211 -0.235763 C381.33420924 -0.22922822 386.57674607 -0.22913469 391.81947327 -0.2464695 C396.62111667 -0.26218254 401.42238272 -0.25935453 406.22401682 -0.24190123 C407.95886427 -0.23882745 409.69373976 -0.24247796 411.42855415 -0.25362138 C422.10014284 -0.31761646 430.60641448 0.39611591 439.76170731 6.38226891 C458.90320159 26.39383112 450.51170731 55.03454083 450.51170731 81.25726891 C291.45170731 81.25726891 132.39170731 81.25726891 -31.48829269 81.25726891 C-31.48829269 17.55543404 -31.48829269 17.55543404 -21.48829269 7.25726891 C-14.88270929 2.06528035 -8.41545525 0.0090457 0 0 Z " fill="#1C8FC7" transform="translate(46.4882926940918,14.742731094360352)"/>
<path d="M0 0 C8.24111062 5.70216196 13.00818368 13.81540453 17.88256836 22.39404297 C19.72346746 25.63276432 21.59439333 28.85413908 23.4609375 32.078125 C23.84316467 32.74009888 24.22539185 33.40207275 24.61920166 34.08410645 C28.49714633 40.78618646 32.520644 47.39595988 36.5625 54 C42.39550375 63.54502243 48.11416698 73.14979273 53.75 82.8125 C59.01408557 91.83406342 64.32356726 100.82466766 69.75 109.75 C70.30196045 110.65983643 70.8539209 111.56967285 71.42260742 112.50708008 C73.829241 116.44813206 76.27338599 120.34213622 78.87109375 124.16015625 C82.89814427 130.14572488 86.52523026 136.3726843 90.19335938 142.58178711 C91.4256687 144.66747548 92.66172435 146.75090489 93.8984375 148.83398438 C97.83755077 155.47781132 101.7469681 162.13877396 105.6015625 168.83203125 C106.24561035 169.94940674 106.8896582 171.06678223 107.55322266 172.21801758 C110.93580843 178.4529844 110.92335457 185.37981721 109.63671875 192.28515625 C107.69953611 198.26308796 103.73594196 203.97428111 98.17930788 207.03848594 C92.6900901 209.63706607 88.26720706 210.57943467 82.22694397 210.5146637 C81.38509802 210.52160922 80.54325207 210.52855475 79.67589563 210.53571075 C76.88008937 210.55387687 74.08514169 210.54374571 71.28930664 210.53344727 C69.27466705 210.54051099 67.26003276 210.54925791 65.2454071 210.55955505 C59.79080973 210.58200759 54.3365031 210.57911894 48.88187718 210.57023358 C44.32177091 210.56511422 39.76171882 210.57242396 35.20161813 210.57970566 C24.44108568 210.59669151 13.68069509 210.59315195 2.92016602 210.57641602 C-8.16748709 210.5594939 -19.25474651 210.57533366 -30.34235662 210.6076389 C-39.87555375 210.63435911 -49.4086285 210.64160426 -58.9418593 210.63312382 C-64.62963733 210.628202 -70.31717852 210.63037015 -76.00492668 210.65091133 C-81.3542716 210.6693066 -86.70305145 210.66326239 -92.05236626 210.63871193 C-94.01065288 210.63371638 -95.96898284 210.63716101 -97.92723465 210.64986038 C-118.58488068 210.77318481 -118.58488068 210.77318481 -126.81825161 203.29079533 C-132.02194556 197.9315104 -134.03859996 191.84490898 -134.625 184.5 C-133.99284379 167.47392603 -118.75181008 149.88277528 -109.99417114 135.7119751 C-108.92066633 133.97272679 -107.85033089 132.23156697 -106.78100586 130.48974609 C-101.02056237 121.1075608 -101.02056237 121.1075608 -98.56640625 117.25 C-92.74279482 108.09074724 -87.24734099 98.74953785 -81.78140259 89.37423706 C-76.34105761 80.04696326 -70.81119575 70.78034942 -65.1875 61.5625 C-60.08641131 53.20103371 -55.02940926 44.81710404 -50.0625 36.375 C-49.01835159 34.6093026 -47.97408387 32.84367575 -46.9296875 31.078125 C-44.93545559 27.70406532 -42.96577744 24.3170835 -41.0078125 20.921875 C-32.28685597 5.97977037 -19.44715314 -9.94114369 0 0 Z " fill="#FEBF40" transform="translate(267.9375,287)"/>
<path d="M0 0 C8.90058091 5.24432568 14.08766927 12.82550782 17.3125 22.5 C17.42176413 24.5781256 17.47146398 26.65956062 17.48950195 28.74047852 C17.50875481 30.67377769 17.50875481 30.67377769 17.52839661 32.64613342 C17.53656789 34.05705377 17.54401087 35.46797849 17.55078125 36.87890625 C17.55485678 37.59182264 17.5589323 38.30473904 17.56313133 39.03925896 C17.58398641 42.81791772 17.59828653 46.5965403 17.60766602 50.37524414 C17.61868676 54.25646697 17.65303696 58.13710955 17.69283772 62.0181284 C17.71914231 65.02010575 17.72737035 68.02194826 17.73094749 71.02403069 C17.73578343 72.45321477 17.74731086 73.88239406 17.76598549 75.31146431 C17.92392605 88.20670309 15.80676357 96.85406756 6.82421875 106.296875 C-1.11201074 113.25804675 -9.65988379 114.99856917 -19.9453125 114.90234375 C-28.51779612 113.98066754 -36.1860246 109.3281908 -41.86915588 102.90315247 C-48.6932909 93.88426723 -49.43234774 84.14708614 -49.31640625 73.20703125 C-49.31723757 71.76600465 -49.31970685 70.32497817 -49.32371521 68.88395691 C-49.32655117 65.88596547 -49.31208614 62.88873027 -49.28442383 59.89086914 C-49.25025038 56.07129763 -49.25641046 52.25306758 -49.2750864 48.43343067 C-49.28570998 45.46572404 -49.27667202 42.4983236 -49.26170158 39.53064537 C-49.2565647 38.12301228 -49.25694619 36.71534664 -49.26324654 35.30771828 C-49.28604521 27.16093331 -48.87467158 20.60711001 -44.6875 13.5 C-44.00107422 12.30310547 -44.00107422 12.30310547 -43.30078125 11.08203125 C-33.3016358 -2.52040986 -15.4499319 -7.1969303 0 0 Z " fill="#FF7349" transform="translate(271.6875,149.5)"/>
<path d="M0 0 C8.47429185 6.3590035 13.20023283 14.54642929 18.39453125 23.578125 C19.65600947 25.74297062 20.9214151 27.90548954 22.1869812 30.06794739 C23.04589278 31.53613389 23.90357462 33.00504048 24.76004028 34.47465515 C28.79845331 41.39811076 32.96087117 48.24180676 37.14453125 55.078125 C43.19896848 65.00198787 49.14561576 74.98394649 55.01953125 85.015625 C55.39346008 85.65398285 55.76738892 86.2923407 56.15264893 86.95004272 C62.30075152 97.45306554 62.30075152 97.45306554 63.51953125 99.890625 C60.63940472 100.13516405 57.78005325 100.31220416 54.89453125 100.453125 C54.08628906 100.52853516 53.27804687 100.60394531 52.4453125 100.68164062 C49.88873304 100.77517402 47.95968387 100.67374375 45.51953125 99.890625 C42.80728696 97.30117206 41.26511854 94.18062781 39.51953125 90.890625 C38.28855599 88.80841109 37.05253855 86.72917288 35.8125 84.65234375 C34.79827316 82.90803192 33.78412648 81.16367113 32.77297974 79.41757202 C24.49347875 65.13010539 15.98952302 50.98637055 7.36132812 36.90722656 C5.7076261 34.19869764 4.07108501 31.48083382 2.44140625 28.7578125 C1.57198878 27.32268991 0.70223276 25.88777232 -0.16796875 24.453125 C-0.52947021 23.83912842 -0.89097168 23.22513184 -1.26342773 22.5925293 C-4.95962022 16.56509232 -9.92441398 12.49795625 -16.48046875 9.890625 C-24.42255822 8.86791974 -31.95136909 8.96120622 -38.48046875 13.890625 C-44.3659827 19.50441707 -48.31277616 26.26646785 -52.3019104 33.28713989 C-54.1357624 36.51336592 -55.9998278 39.72213344 -57.859375 42.93359375 C-58.24056992 43.59370956 -58.62176483 44.25382538 -59.01451111 44.9339447 C-63.00732833 51.83472374 -67.13857973 58.64878259 -71.29296875 65.453125 C-72.69550173 67.75248881 -74.09773928 70.05203263 -75.5 72.3515625 C-76.16725098 73.4456543 -76.83450195 74.53974609 -77.52197266 75.66699219 C-81.04413282 81.46437474 -84.52269588 87.28796575 -87.99145508 93.11743164 C-88.44157959 93.87145264 -88.8917041 94.62547363 -89.35546875 95.40234375 C-89.74476563 96.05678467 -90.1340625 96.71122559 -90.53515625 97.38549805 C-91.48046875 98.890625 -91.48046875 98.890625 -92.48046875 99.890625 C-93.82314288 99.97694374 -95.17021197 99.99768973 -96.515625 99.98828125 C-97.32451172 99.98505859 -98.13339844 99.98183594 -98.96679688 99.97851562 C-99.81693359 99.97013672 -100.66707031 99.96175781 -101.54296875 99.953125 C-102.39697266 99.94861328 -103.25097656 99.94410156 -104.13085938 99.93945312 C-106.24742538 99.92762873 -108.3639556 99.90969269 -110.48046875 99.890625 C-105.70427412 90.91556503 -100.56372319 82.18070948 -95.35546875 73.453125 C-94.50149393 72.01887841 -93.64765416 70.58455141 -92.79394531 69.15014648 C-82.74203939 52.26864215 -82.74203939 52.26864215 -77.84399414 44.15698242 C-75.10335075 39.6166706 -72.40464106 35.05478157 -69.734375 30.47265625 C-69.08049805 29.36011475 -68.42662109 28.24757324 -67.75292969 27.10131836 C-66.49040474 24.95260406 -65.23645261 22.79881786 -63.99316406 20.63891602 C-56.33405247 7.66331873 -47.09853554 -2.69466462 -32.11328125 -6.640625 C-20.12074054 -8.77579545 -10.29867803 -6.10551951 0 0 Z " fill="#EB6841" transform="translate(279.48046875,276.109375)"/>
<path d="M0 0 C2.78966689 0.90664174 3.75080432 1.48703703 5.5 3.8125 C5.86076355 6.45109558 5.86076355 6.45109558 5.84057617 9.66088867 C5.84034958 10.8619072 5.84012299 12.06292572 5.83988953 13.30033875 C5.82440567 14.59728165 5.80892181 15.89422455 5.79296875 17.23046875 C5.78737234 18.57139105 5.78310245 19.91231949 5.78010559 21.25325012 C5.76866018 24.77974431 5.73919618 28.30586684 5.70599365 31.83221436 C5.67528589 35.43171155 5.66159878 39.0312689 5.64648438 42.63085938 C5.61432579 49.69155814 5.56313345 56.75200479 5.5 63.8125 C6.68078125 63.76609375 7.8615625 63.7196875 9.078125 63.671875 C10.63539134 63.63435051 12.19268508 63.59795107 13.75 63.5625 C14.91595703 63.51222656 14.91595703 63.51222656 16.10546875 63.4609375 C21.88097107 63.36221096 21.88097107 63.36221096 25.05078125 65.66796875 C26.5 67.8125 26.5 67.8125 26.4375 70.375 C25.43308007 72.98649182 24.65598192 74.07209907 22.5 75.8125 C20.59887695 76.15307617 20.59887695 76.15307617 18.48828125 76.10546875 C17.73095703 76.09580078 16.97363281 76.08613281 16.19335938 76.07617188 C15.40767578 76.05103516 14.62199219 76.02589844 13.8125 76 C12.61657227 75.97969727 12.61657227 75.97969727 11.39648438 75.95898438 C9.43070033 75.92367089 7.46526418 75.86986447 5.5 75.8125 C5.5314209 77.50777832 5.5314209 77.50777832 5.56347656 79.23730469 C5.63592696 83.43411569 5.68181784 87.63087152 5.71972656 91.828125 C5.73983061 93.6439748 5.76711835 95.45975995 5.80175781 97.27539062 C5.85033039 99.88688105 5.87298027 102.49751498 5.890625 105.109375 C5.91127014 105.91993347 5.93191528 106.73049194 5.95318604 107.56561279 C5.95463522 111.21340974 5.84220003 113.35127387 3.63574219 116.32519531 C1.5 117.8125 1.5 117.8125 -1.0625 118.3125 C-3.5 117.8125 -3.5 117.8125 -5.1340332 116.32519531 C-7.11855953 112.67466003 -6.8702656 109.15575848 -6.79296875 105.109375 C-6.78872391 104.27158508 -6.78447906 103.43379517 -6.78010559 102.57061768 C-6.76334408 99.90091498 -6.72569711 97.23197363 -6.6875 94.5625 C-6.67244987 92.75001092 -6.65876203 90.93750998 -6.64648438 89.125 C-6.61344889 84.68720769 -6.56168443 80.24998283 -6.5 75.8125 C-7.10499329 75.82138245 -7.70998657 75.83026489 -8.33331299 75.8394165 C-14.62722328 75.92787593 -20.92095713 75.98822842 -27.21533203 76.03222656 C-29.56468884 76.05234814 -31.91399554 76.07964851 -34.26318359 76.11425781 C-37.63912315 76.1627504 -41.01440086 76.18546357 -44.390625 76.203125 C-45.44179504 76.22377014 -46.49296509 76.24441528 -47.57598877 76.26568604 C-54.84326075 76.26792483 -54.84326075 76.26792483 -58.19677734 73.94238281 C-59.5 71.8125 -59.5 71.8125 -59.4609375 69.34375 C-58.37650294 66.48719067 -57.08874479 64.65296317 -55.125 62.3125 C-54.40570313 61.44625 -53.68640625 60.58 -52.9453125 59.6875 C-52.13835937 58.73875 -51.33140625 57.79 -50.5 56.8125 C-49.6013013 55.75022092 -48.70287246 54.68771349 -47.8046875 53.625 C-46.39474157 51.95856548 -44.98359342 50.29322185 -43.56884766 48.63085938 C-40.15579772 44.61495132 -36.85411689 40.52238283 -33.58203125 36.390625 C-31.16915654 33.40282518 -28.68192573 30.48203761 -26.1875 27.5625 C-21.26942673 21.79820477 -16.56212477 15.88647449 -11.91015625 9.90625 C-11.11480469 8.8853125 -10.31945312 7.864375 -9.5 6.8125 C-8.44619141 5.43578125 -8.44619141 5.43578125 -7.37109375 4.03125 C-5.07760727 1.31162511 -3.68203927 -0.27615295 0 0 Z " fill="#FFFBFA" transform="translate(178.5,146.1875)"/>
<path d="M0 0 C2.66535652 1.02513712 3.72388374 1.67561821 5.4375 3.9375 C5.79826355 6.57609558 5.79826355 6.57609558 5.77807617 9.78588867 C5.77784958 10.9869072 5.77762299 12.18792572 5.77738953 13.42533875 C5.76190567 14.72228165 5.74642181 16.01922455 5.73046875 17.35546875 C5.72487234 18.69639105 5.72060245 20.03731949 5.71760559 21.37825012 C5.70616018 24.90474431 5.67669618 28.43086684 5.64349365 31.95721436 C5.61278589 35.55671155 5.59909878 39.1562689 5.58398438 42.75585938 C5.55182579 49.81655814 5.50063345 56.87700479 5.4375 63.9375 C6.61828125 63.89109375 7.7990625 63.8446875 9.015625 63.796875 C10.57289134 63.75935051 12.13018508 63.72295107 13.6875 63.6875 C14.85345703 63.63722656 14.85345703 63.63722656 16.04296875 63.5859375 C21.81847107 63.48721096 21.81847107 63.48721096 24.98828125 65.79296875 C26.4375 67.9375 26.4375 67.9375 26.375 70.5 C25.37058007 73.11149182 24.59348192 74.19709907 22.4375 75.9375 C20.53637695 76.27807617 20.53637695 76.27807617 18.42578125 76.23046875 C17.66845703 76.22080078 16.91113281 76.21113281 16.13085938 76.20117188 C15.34517578 76.17603516 14.55949219 76.15089844 13.75 76.125 C12.55407227 76.10469727 12.55407227 76.10469727 11.33398438 76.08398438 C9.36820033 76.04867089 7.40276418 75.99486447 5.4375 75.9375 C5.4689209 77.63277832 5.4689209 77.63277832 5.50097656 79.36230469 C5.57342696 83.55911569 5.61931784 87.75587152 5.65722656 91.953125 C5.67733061 93.7689748 5.70461835 95.58475995 5.73925781 97.40039062 C5.78783039 100.01188105 5.81048027 102.62251498 5.828125 105.234375 C5.84877014 106.04493347 5.86941528 106.85549194 5.89068604 107.69061279 C5.89213522 111.33840974 5.77970003 113.47627387 3.57324219 116.45019531 C1.4375 117.9375 1.4375 117.9375 -1.125 118.4375 C-3.5625 117.9375 -3.5625 117.9375 -5.1965332 116.45019531 C-7.18105953 112.79966003 -6.9327656 109.28075848 -6.85546875 105.234375 C-6.85122391 104.39658508 -6.84697906 103.55879517 -6.84260559 102.69561768 C-6.82584408 100.02591498 -6.78819711 97.35697363 -6.75 94.6875 C-6.73494987 92.87501092 -6.72126203 91.06250998 -6.70898438 89.25 C-6.67594889 84.81220769 -6.62418443 80.37498283 -6.5625 75.9375 C-7.16749329 75.94638245 -7.77248657 75.95526489 -8.39581299 75.9644165 C-14.68972328 76.05287593 -20.98345713 76.11322842 -27.27783203 76.15722656 C-29.62718884 76.17734814 -31.97649554 76.20464851 -34.32568359 76.23925781 C-37.70162315 76.2877504 -41.07690086 76.31046357 -44.453125 76.328125 C-45.50429504 76.34877014 -46.55546509 76.36941528 -47.63848877 76.39068604 C-54.90576075 76.39292483 -54.90576075 76.39292483 -58.25927734 74.06738281 C-59.5625 71.9375 -59.5625 71.9375 -59.5234375 69.46875 C-58.43900294 66.61219067 -57.15124479 64.77796317 -55.1875 62.4375 C-54.46433594 61.56609375 -53.74117188 60.6946875 -52.99609375 59.796875 C-52.19300781 58.85328125 -51.38992188 57.9096875 -50.5625 56.9375 C-49.25059907 55.39408714 -47.93870207 53.85067094 -46.62695312 52.30712891 C-45.69828443 51.21479058 -44.76857293 50.12333806 -43.83789062 49.03271484 C-40.51541079 45.1205062 -37.32933285 41.1205819 -34.1875 37.0625 C-29.73727826 31.32382395 -25.06408914 25.81726479 -20.27807617 20.35668945 C-16.22447252 15.72721719 -12.31017152 11.0118458 -8.46484375 6.20703125 C-3.1966945 -0.07796816 -3.1966945 -0.07796816 0 0 Z " fill="#FFFBFA" transform="translate(366.5625,146.0625)"/>
<path d="M0 0 C8.90058091 5.24432568 14.08766927 12.82550782 17.3125 22.5 C17.42176413 24.5781256 17.47146398 26.65956062 17.48950195 28.74047852 C17.50875481 30.67377769 17.50875481 30.67377769 17.52839661 32.64613342 C17.53656789 34.05705377 17.54401087 35.46797849 17.55078125 36.87890625 C17.55485678 37.59182264 17.5589323 38.30473904 17.56313133 39.03925896 C17.58398641 42.81791772 17.59828653 46.5965403 17.60766602 50.37524414 C17.61868676 54.25646697 17.65303696 58.13710955 17.69283772 62.0181284 C17.71914231 65.02010575 17.72737035 68.02194826 17.73094749 71.02403069 C17.73578343 72.45321477 17.74731086 73.88239406 17.76598549 75.31146431 C17.92392605 88.20670309 15.80676357 96.85406756 6.82421875 106.296875 C-1.11201074 113.25804675 -9.65988379 114.99856917 -19.9453125 114.90234375 C-28.51779612 113.98066754 -36.1860246 109.3281908 -41.86915588 102.90315247 C-48.6932909 93.88426723 -49.43234774 84.14708614 -49.31640625 73.20703125 C-49.31723757 71.76600465 -49.31970685 70.32497817 -49.32371521 68.88395691 C-49.32655117 65.88596547 -49.31208614 62.88873027 -49.28442383 59.89086914 C-49.25025038 56.07129763 -49.25641046 52.25306758 -49.2750864 48.43343067 C-49.28570998 45.46572404 -49.27667202 42.4983236 -49.26170158 39.53064537 C-49.2565647 38.12301228 -49.25694619 36.71534664 -49.26324654 35.30771828 C-49.28604521 27.16093331 -48.87467158 20.60711001 -44.6875 13.5 C-44.00107422 12.30310547 -44.00107422 12.30310547 -43.30078125 11.08203125 C-33.3016358 -2.52040986 -15.4499319 -7.1969303 0 0 Z M-34.2421875 18.3046875 C-37.16335687 22.74170692 -37.93842928 27.20109162 -37.99389648 32.43847656 C-38.00988388 33.58697083 -38.02587128 34.73546509 -38.04234314 35.91876221 C-38.04770584 37.14697693 -38.05306854 38.37519165 -38.05859375 39.640625 C-38.06762222 40.91798523 -38.0766507 42.19534546 -38.08595276 43.51141357 C-38.1023941 46.21124793 -38.11013359 48.91095904 -38.11303711 51.61083984 C-38.1184078 55.04494043 -38.15605135 58.4778574 -38.20178127 61.91162491 C-38.23895675 65.217116 -38.24007834 68.52243242 -38.24609375 71.828125 C-38.26562607 73.0482428 -38.28515839 74.2683606 -38.30528259 75.52545166 C-38.26531385 83.16117097 -37.23157988 89.20421947 -32.6875 95.5 C-26.24566825 101.434047 -21.74924802 102.87540433 -13.01953125 102.76953125 C-7.41815368 102.31643037 -3.77971851 100.74199701 0.05859375 96.62890625 C4.2968097 91.25236851 6.55063633 86.59929299 6.60302734 79.65917969 C6.61578705 78.5073822 6.62854675 77.35558472 6.64169312 76.16888428 C6.64391876 74.93237122 6.64614441 73.69585815 6.6484375 72.421875 C6.6550943 71.14072815 6.6617511 69.8595813 6.66860962 68.53961182 C6.68056239 65.82959628 6.68429271 63.11970799 6.68310547 60.40966797 C6.6829028 56.95878922 6.71015786 53.50873888 6.74464989 50.05805588 C6.77241722 46.74181858 6.77107228 43.42572676 6.7734375 40.109375 C6.78780853 38.88095886 6.80217957 37.65254272 6.81698608 36.38690186 C6.77354304 28.16599977 5.74292447 21.58513769 0.34765625 15.16015625 C-5.81077537 10.17243638 -10.08059853 7.98026821 -18.1328125 8.1953125 C-25.31026695 9.05133918 -29.63462907 13.01135293 -34.2421875 18.3046875 Z " fill="#FFFDFC" transform="translate(271.6875,149.5)"/>
<path d="M0 0 C5.17590057 2.93235432 8.85911029 6.47413179 10.7421875 12.1640625 C10.92350254 14.87010398 10.99853825 17.45027324 10.95703125 20.15234375 C10.9505809 20.9371814 10.94413055 21.72201904 10.93748474 22.53063965 C10.80013516 32.09981745 10.05263549 41.62707557 9.3046875 51.1640625 C9.0999414 53.84304713 8.89716662 56.52216835 8.69589233 59.20141602 C8.56351505 60.95728028 8.42895986 62.71298181 8.29214478 64.46850586 C7.96695187 68.72444607 7.69258505 72.97294138 7.52685547 77.23828125 C7.49301254 78.0475708 7.45916962 78.85686035 7.42430115 79.69067383 C7.36502973 81.19920835 7.31662474 82.70823079 7.28187561 84.2175293 C7.04024743 90.23257223 5.65921789 94.88758892 1.7421875 99.5390625 C-1.80982913 102.42507601 -5.48631217 102.62464652 -9.90234375 102.57421875 C-14.02008204 101.85719964 -16.80349444 99.46821369 -19.2578125 96.1640625 C-21.00228736 91.73350891 -21.58623989 87.79714803 -21.8203125 83.0546875 C-21.85649689 82.37887634 -21.89268127 81.70306519 -21.92996216 81.0067749 C-22.04651634 78.80951387 -22.15208003 76.6118683 -22.2578125 74.4140625 C-22.4175682 71.33570257 -22.58338245 68.25768283 -22.75 65.1796875 C-22.79091766 64.4117688 -22.83183533 63.6438501 -22.87399292 62.85266113 C-23.25013643 55.94528185 -23.80288266 49.05710651 -24.3828125 42.1640625 C-24.97104374 34.77248754 -25.49497618 27.39184679 -25.6328125 19.9765625 C-25.65875488 19.27595703 -25.68469727 18.57535156 -25.71142578 17.85351562 C-25.73358429 11.85594599 -23.69199947 7.8184571 -19.66015625 3.421875 C-13.76674123 -1.13569928 -7.18626249 -2.66065774 0 0 Z " fill="#104C5B" transform="translate(263.2578125,327.8359375)"/>
<path d="M0 0 C0.33 0 0.66 0 1 0 C1 13.53 1 27.06 1 41 C-10.22 41 -21.44 41 -33 41 C-25.96840179 31.62453572 -18.56710941 22.63871731 -10.96850586 13.72509766 C-7.59492904 9.75061557 -4.37191563 5.68219379 -1.2421875 1.51171875 C-0.83226562 1.01285156 -0.42234375 0.51398438 0 0 Z " fill="#FF7247" transform="translate(171,169)"/>
<path d="M0 0 C0.33 0 0.66 0 1 0 C1 13.53 1 27.06 1 41 C-10.22 41 -21.44 41 -33 41 C-26.25525394 32.00700525 -26.25525394 32.00700525 -23.80859375 29.0625 C-22.98911255 28.07237915 -22.98911255 28.07237915 -22.15307617 27.06225586 C-21.58693604 26.38171143 -21.0207959 25.70116699 -20.4375 25 C-16.67917045 20.46558731 -12.92954128 15.92598142 -9.234375 11.33984375 C-8.63826416 10.60056641 -8.04215332 9.86128906 -7.42797852 9.09960938 C-6.28283797 7.67705858 -5.14002925 6.252627 -3.99975586 4.82617188 C-2.68861597 3.19937572 -1.34750504 1.59680422 0 0 Z " fill="#FF7247" transform="translate(359,169)"/>
<path d="M0 0 C3.66572718 0.19511594 7.12934349 0.66165971 10.73144531 1.38208008 C9.28840621 5.29781045 7.44258182 8.73216894 5.29003906 12.30395508 C4.62423828 13.41125977 3.9584375 14.51856445 3.27246094 15.65942383 C2.92739502 16.22902832 2.5823291 16.79863281 2.22680664 17.38549805 C1.16507491 19.13847031 0.10896436 20.89473316 -0.94628906 22.65161133 C-6.12133681 31.2348622 -6.12133681 31.2348622 -7.26855469 32.38208008 C-8.61122882 32.46839882 -9.95829791 32.48914481 -11.30371094 32.47973633 C-12.11259766 32.47651367 -12.92148438 32.47329102 -13.75488281 32.4699707 C-14.60501953 32.4615918 -15.45515625 32.45321289 -16.33105469 32.44458008 C-17.18505859 32.44006836 -18.0390625 32.43555664 -18.91894531 32.4309082 C-21.03551132 32.41908381 -23.15204154 32.40114776 -25.26855469 32.38208008 C-23.9961065 29.94880196 -22.68686825 27.54778985 -21.33105469 25.15942383 C-19.68537332 22.23295175 -18.25597989 19.23799692 -16.83105469 16.19848633 C-8.95701866 0.34903184 -8.95701866 0.34903184 0 0 Z " fill="#CFC8CD" transform="translate(175.2685546875,375.617919921875)"/>
<path d="M0 0 C5.19120843 -1.65676865 9.98972558 -2.60943998 15.38085938 -1.41650391 C25.27066433 3.93217696 31.32410551 20.18964259 36 30 C36 30.33 36 30.66 36 31 C30.02384357 31.9374363 23.87384203 32.86646663 18 31 C13.62310255 27.50675452 11.40703361 22.14169664 9.0703125 17.17724609 C7.42490292 13.83012871 5.4004004 10.75120058 3.375 7.625 C0 2.24901186 0 2.24901186 0 0 Z " fill="#CFC8CE" transform="translate(326,377)"/>
<path d="M0 0 C3.42484369 2.28322912 4.97163392 4.19326784 6.8125 7.875 C7.4190099 12.12056929 7.13882523 14.23490051 5.1875 18.0625 C2.13239729 21.68038479 -0.43441597 24.58338069 -5.36328125 25.10546875 C-9.74175641 24.90678164 -12.50036798 24.06455002 -15.6875 21 C-18.37386536 18.03007385 -19.11972166 15.59345044 -19.5 11.5625 C-19.12540854 7.14232079 -18.02364013 5.24770719 -15.1875 1.875 C-10.35049215 -2.04689826 -5.76079882 -2.03322311 0 0 Z " fill="#144E5B" transform="translate(262.1875,447.125)"/>
<path d="M0 0 C3.75212276 2.01502889 5.63644095 3.45466142 8 7 C8.73024382 11.53430468 8.61755802 14.9991301 6.1875 18.9375 C2.11136016 22.78071756 -0.38039469 23.44316988 -5.77734375 23.3203125 C-9.86446018 22.73130802 -11.93115809 20.42512255 -14.3125 17.25 C-15.36336151 13.81081688 -15.58209512 10.52763671 -15 7 C-11.22110556 1.00589158 -7.0297361 -1.10296426 0 0 Z " fill="#F9FCFD" transform="translate(164,44)"/>
<path d="M0 0 C3.75212276 2.01502889 5.63644095 3.45466142 8 7 C8.4775733 11.85532856 8.51341394 14.04398784 6.1875 18.375 C3.98950103 21.01259877 2.39243716 22.77574982 -1.0859375 23.3359375 C-5.15298077 23.40534097 -7.39674818 23.37221921 -10.9375 21.1875 C-14.78182478 17.11018584 -15.43829943 14.61955006 -15.32421875 9.22265625 C-14.84282807 5.92252016 -13.38646587 4.25009639 -11 2 C-7.29519659 -0.46986894 -4.29780299 -0.67432448 0 0 Z " fill="#F9FCFD" transform="translate(120,44)"/>
<path d="M0 0 C3.64207936 1.61870194 6.16648143 3.42946383 8 7 C8.54897239 11.86232692 8.5113954 14.01373745 6.25 18.375 C4.07580337 20.91156273 3.02341668 21.82269149 0 23 C-4.63897872 23.32364968 -8.1299216 22.58005227 -12 20 C-14.63597788 16.04603318 -15.44212405 12.73823507 -15 8 C-11.50970631 1.14406597 -7.58465564 -0.96478007 0 0 Z " fill="#FAFCFD" transform="translate(76,44)"/>
</svg>
